<svg width="25" height="24" viewBox="0 0 25 24" fill="none" xmlns="http://www.w3.org/2000/svg">
<path d="M20.3125 1.5H6.25C5.8356 1.5 5.43817 1.65804 5.14515 1.93934C4.85212 2.22064 4.6875 2.60218 4.6875 3V6H3.125V7.5H4.6875V11.25H3.125V12.75H4.6875V16.5H3.125V18H4.6875V21C4.6875 21.3978 4.85212 21.7794 5.14515 22.0607C5.43817 22.342 5.8356 22.5 6.25 22.5H20.3125C20.7269 22.5 21.1243 22.342 21.4174 22.0607C21.7104 21.7794 21.875 21.3978 21.875 21V3C21.875 2.60218 21.7104 2.22064 21.4174 1.93934C21.1243 1.65804 20.7269 1.5 20.3125 1.5ZM20.3125 21H6.25V18H7.8125V16.5H6.25V12.75H7.8125V11.25H6.25V7.5H7.8125V6H6.25V3H20.3125V21Z" fill="black"/>
<path d="M10.9375 6H17.1875V7.5H10.9375V6ZM10.9375 11.25H17.1875V12.75H10.9375V11.25ZM10.9375 16.5H17.1875V18H10.9375V16.5Z" fill="black"/>
</svg>
