<svg width="28" height="28" viewBox="0 0 28 28" fill="none" xmlns="http://www.w3.org/2000/svg">
<path d="M24.8059 10.3888L23.7829 6.626C23.3881 5.17434 23.1908 4.44922 22.7859 3.90178C22.3822 3.3579 21.834 2.93892 21.2039 2.69278C20.57 2.44434 19.8208 2.44434 18.3224 2.44434M3.19434 10.3888L4.21728 6.626C4.61205 5.17434 4.80944 4.44922 5.21429 3.90178C5.61796 3.3579 6.16619 2.93892 6.79626 2.69278C7.43019 2.44434 8.17939 2.44434 9.67779 2.44434" stroke="black" stroke-width="1.5"/>
<path d="M9.67773 2.44444C9.67773 2.06135 9.82953 1.69395 10.0997 1.42307C10.3699 1.15218 10.7364 1 11.1185 1H16.8816C17.2637 1 17.6302 1.15218 17.9004 1.42307C18.1705 1.69395 18.3223 2.06135 18.3223 2.44444C18.3223 2.82754 18.1705 3.19494 17.9004 3.46582C17.6302 3.73671 17.2637 3.88889 16.8816 3.88889H11.1185C10.7364 3.88889 10.3699 3.73671 10.0997 3.46582C9.82953 3.19494 9.67773 2.82754 9.67773 2.44444Z" stroke="black" stroke-width="1.5"/>
<path d="M8.23682 15.4443V21.2221M19.763 15.4443V21.2221M13.9999 15.4443V21.2221" stroke="black" stroke-width="1.5" stroke-linecap="round" stroke-linejoin="round"/>
<path d="M2.27791 20.4353C3.06457 23.5885 3.4579 25.1644 4.62925 26.0831C5.80203 27.0003 7.4229 27.0003 10.6646 27.0003H17.3354C20.5771 27.0003 22.198 27.0003 23.3722 26.0831C24.5435 25.1644 24.9369 23.5885 25.7221 20.4353C26.9583 15.478 27.5764 13.0008 26.2797 11.3339C24.9815 9.66699 22.4328 9.66699 17.3368 9.66699H10.6646C5.56719 9.66699 3.01991 9.66699 1.72178 11.3339C0.95961 12.3118 0.857315 13.5699 1.15411 15.4448" stroke="black" stroke-width="1.5" stroke-linecap="round"/>
</svg>
