<svg width="28" height="28" viewBox="0 0 28 28" fill="none" xmlns="http://www.w3.org/2000/svg">
<path d="M14 1C6.8201 1 1 6.8201 1 14C1 21.1799 6.8201 27 14 27C21.1799 27 27 21.1799 27 14C27 6.8201 21.1799 1 14 1Z" stroke="black" stroke-width="1.5" stroke-linecap="round" stroke-linejoin="round"/>
<path d="M3.95239 22.2496C3.95239 22.2496 6.85009 18.5498 14.0001 18.5498C21.1501 18.5498 24.0491 22.2496 24.0491 22.2496M14.0001 13.9998C15.0344 13.9998 16.0264 13.5889 16.7578 12.8575C17.4892 12.1262 17.9001 11.1342 17.9001 10.0998C17.9001 9.06548 17.4892 8.0735 16.7578 7.34211C16.0264 6.61072 15.0344 6.19983 14.0001 6.19983C12.9657 6.19983 11.9738 6.61072 11.2424 7.34211C10.511 8.0735 10.1001 9.06548 10.1001 10.0998C10.1001 11.1342 10.511 12.1262 11.2424 12.8575C11.9738 13.5889 12.9657 13.9998 14.0001 13.9998Z" stroke="black" stroke-width="1.5" stroke-linecap="round" stroke-linejoin="round"/>
</svg>
