<svg width="28" height="27" viewBox="0 0 28 27" fill="none" xmlns="http://www.w3.org/2000/svg">
<path d="M14 1C6.8201 1 1 6.59625 1 13.5C1 20.4037 6.8201 26 14 26C21.1799 26 27 20.4037 27 13.5C27 6.59625 21.1799 1 14 1Z" stroke="black" stroke-opacity="0.37" stroke-width="1.5" stroke-linecap="round" stroke-linejoin="round"/>
<path d="M3.95239 21.4324C3.95239 21.4324 6.85009 17.8749 14.0001 17.8749C21.1501 17.8749 24.0491 21.4324 24.0491 21.4324M14.0001 13.4999C15.0344 13.4999 16.0264 13.1049 16.7578 12.4016C17.4892 11.6983 17.9001 10.7445 17.9001 9.74994C17.9001 8.75538 17.4892 7.80155 16.7578 7.09829C16.0264 6.39503 15.0344 5.99994 14.0001 5.99994C12.9657 5.99994 11.9738 6.39503 11.2424 7.09829C10.511 7.80155 10.1001 8.75538 10.1001 9.74994C10.1001 10.7445 10.511 11.6983 11.2424 12.4016C11.9738 13.1049 12.9657 13.4999 14.0001 13.4999Z" stroke="black" stroke-opacity="0.37" stroke-width="1.5" stroke-linecap="round" stroke-linejoin="round"/>
</svg>
