<svg width="30" height="30" viewBox="0 0 30 30" fill="none" xmlns="http://www.w3.org/2000/svg">
<path d="M20.75 4C18.2891 4 16.1492 5.10977 14.8906 6.96953C13.632 5.10977 11.4922 4 9.03125 4C7.16711 4.00217 5.37995 4.74366 4.0618 6.0618C2.74366 7.37995 2.00217 9.16711 2 11.0312C2 14.4531 4.13281 18.0145 8.33984 21.6145C10.2676 23.2571 12.35 24.7092 14.5578 25.9504C14.6601 26.0054 14.7745 26.0341 14.8906 26.0341C15.0068 26.0341 15.1211 26.0054 15.2234 25.9504C17.4312 24.7092 19.5136 23.2571 21.4414 21.6145C25.6484 18.0145 27.7812 14.4531 27.7812 11.0312C27.7791 9.16711 27.0376 7.37995 25.7194 6.0618C24.4013 4.74366 22.6141 4.00217 20.75 4ZM14.8906 24.5207C12.9676 23.4109 3.40625 17.5609 3.40625 11.0312C3.4078 9.53988 4.00093 8.11004 5.05549 7.05549C6.11004 6.00093 7.53988 5.4078 9.03125 5.40625C11.4078 5.40625 13.4035 6.67539 14.2402 8.71914C14.2932 8.8481 14.3833 8.9584 14.4991 9.03603C14.6149 9.11365 14.7512 9.1551 14.8906 9.1551C15.03 9.1551 15.1663 9.11365 15.2821 9.03603C15.3979 8.9584 15.488 8.8481 15.541 8.71914C16.3777 6.67539 18.3734 5.40625 20.75 5.40625C22.2414 5.4078 23.6712 6.00093 24.7258 7.05549C25.7803 8.11004 26.3734 9.53988 26.375 11.0312C26.375 17.5609 16.8137 23.4109 14.8906 24.5207Z" fill="black" fill-opacity="0.37"/>
</svg>
