<svg width="23" height="22" viewBox="0 0 23 22" fill="none" xmlns="http://www.w3.org/2000/svg">
<path d="M19.4413 17.448L22.7614 20.6221C22.9162 20.7755 23.0019 20.9808 23 21.194C22.998 21.4072 22.9086 21.6111 22.751 21.7619C22.5934 21.9126 22.3803 21.9981 22.1574 22C21.9345 22.0018 21.7198 21.9199 21.5595 21.7718L18.2394 18.596C16.0698 20.3741 13.2646 21.2792 10.4123 21.1215C7.56005 20.9638 4.88252 19.7555 2.94156 17.7502C1.00059 15.7449 -0.0529362 13.0984 0.00204894 10.3661C0.057034 7.63384 1.21626 5.02813 3.23647 3.09575C5.25668 1.16337 7.98084 0.0545543 10.8373 0.00195986C13.6938 -0.0506346 16.4606 0.957086 18.557 2.81366C20.6535 4.67024 21.9167 7.23136 22.0815 9.95959C22.2464 12.6878 21.3002 15.3711 19.4413 17.4464V17.448ZM11.0501 19.5131C13.5299 19.5131 15.9081 18.5709 17.6616 16.8937C19.415 15.2164 20.4001 12.9416 20.4001 10.5697C20.4001 8.19772 19.415 5.92292 17.6616 4.2457C15.9081 2.56847 13.5299 1.62622 11.0501 1.62622C8.57035 1.62622 6.19214 2.56847 4.43868 4.2457C2.68522 5.92292 1.70013 8.19772 1.70013 10.5697C1.70013 12.9416 2.68522 15.2164 4.43868 16.8937C6.19214 18.5709 8.57035 19.5131 11.0501 19.5131Z" fill="black" fill-opacity="0.37"/>
</svg>
