<svg width="34" height="25" viewBox="0 0 34 25" fill="none" xmlns="http://www.w3.org/2000/svg">
<path d="M0 1.63043C0 1.19802 0.167912 0.783309 0.466798 0.477543C0.765684 0.171777 1.17106 0 1.59375 0H32.4062C32.8289 0 33.2343 0.171777 33.5332 0.477543C33.8321 0.783309 34 1.19802 34 1.63043C34 2.06285 33.8321 2.47756 33.5332 2.78333C33.2343 3.08909 32.8289 3.26087 32.4062 3.26087H1.59375C1.17106 3.26087 0.765684 3.08909 0.466798 2.78333C0.167912 2.47756 0 2.06285 0 1.63043ZM0 12.5C0 12.0676 0.167912 11.6529 0.466798 11.3471C0.765684 11.0413 1.17106 10.8696 1.59375 10.8696H32.4062C32.8289 10.8696 33.2343 11.0413 33.5332 11.3471C33.8321 11.6529 34 12.0676 34 12.5C34 12.9324 33.8321 13.3471 33.5332 13.6529C33.2343 13.9587 32.8289 14.1304 32.4062 14.1304H1.59375C1.17106 14.1304 0.765684 13.9587 0.466798 13.6529C0.167912 13.3471 0 12.9324 0 12.5ZM1.59375 21.7391C1.17106 21.7391 0.765684 21.9109 0.466798 22.2167C0.167912 22.5224 0 22.9371 0 23.3696C0 23.802 0.167912 24.2167 0.466798 24.5225C0.765684 24.8282 1.17106 25 1.59375 25H32.4062C32.8289 25 33.2343 24.8282 33.5332 24.5225C33.8321 24.2167 34 23.802 34 23.3696C34 22.9371 33.8321 22.5224 33.5332 22.2167C33.2343 21.9109 32.8289 21.7391 32.4062 21.7391H1.59375Z" fill="black"/>
</svg>
